<svg id="visual" viewBox="0 0 900 450" width="900" height="450" xmlns="http://www.w3.org/2000/svg" xmlns:xlink="http://www.w3.org/1999/xlink" version="1.1"><rect x="0" y="0" width="900" height="450" fill="#f1f6ff"></rect><defs><linearGradient id="grad1_0" x1="50%" y1="100%" x2="100%" y2="0%"><stop offset="10%" stop-color="#fbae3c" stop-opacity="1"></stop><stop offset="90%" stop-color="#fbae3c" stop-opacity="1"></stop></linearGradient></defs><defs><linearGradient id="grad1_1" x1="50%" y1="100%" x2="100%" y2="0%"><stop offset="10%" stop-color="#fbae3c" stop-opacity="1"></stop><stop offset="90%" stop-color="#ffc0e4" stop-opacity="1"></stop></linearGradient></defs><defs><linearGradient id="grad1_2" x1="50%" y1="100%" x2="100%" y2="0%"><stop offset="10%" stop-color="#f1f6ff" stop-opacity="1"></stop><stop offset="90%" stop-color="#ffc0e4" stop-opacity="1"></stop></linearGradient></defs><defs><linearGradient id="grad2_0" x1="0%" y1="100%" x2="50%" y2="0%"><stop offset="10%" stop-color="#fbae3c" stop-opacity="1"></stop><stop offset="90%" stop-color="#fbae3c" stop-opacity="1"></stop></linearGradient></defs><defs><linearGradient id="grad2_1" x1="0%" y1="100%" x2="50%" y2="0%"><stop offset="10%" stop-color="#ffc0e4" stop-opacity="1"></stop><stop offset="90%" stop-color="#fbae3c" stop-opacity="1"></stop></linearGradient></defs><defs><linearGradient id="grad2_2" x1="0%" y1="100%" x2="50%" y2="0%"><stop offset="10%" stop-color="#ffc0e4" stop-opacity="1"></stop><stop offset="90%" stop-color="#f1f6ff" stop-opacity="1"></stop></linearGradient></defs><g transform="translate(900, 450)"><path d="M-292.5 0C-290.4 -31.1 -288.3 -62.2 -278.2 -90.4C-268.1 -118.6 -250.1 -143.9 -229.8 -166.9C-209.4 -189.9 -186.7 -210.6 -161.1 -221.7C-135.4 -232.7 -106.8 -234.2 -79.4 -244.4C-52.1 -254.6 -26 -273.6 0 -292.5L0 0Z" fill="#f4e0ff"></path><path d="M-195 0C-193.6 -20.7 -192.2 -41.5 -185.5 -60.3C-178.7 -79.1 -166.7 -96 -153.2 -111.3C-139.6 -126.6 -124.5 -140.4 -107.4 -147.8C-90.3 -155.2 -71.2 -156.1 -52.9 -162.9C-34.7 -169.8 -17.4 -182.4 0 -195L0 0Z" fill="#ffa998"></path><path d="M-97.5 0C-96.8 -10.4 -96.1 -20.7 -92.7 -30.1C-89.4 -39.5 -83.4 -48 -76.6 -55.6C-69.8 -63.3 -62.2 -70.2 -53.7 -73.9C-45.1 -77.6 -35.6 -78.1 -26.5 -81.5C-17.4 -84.9 -8.7 -91.2 0 -97.5L0 0Z" fill="#fbae3c"></path></g><g transform="translate(0, 0)"><path d="M292.5 0C291.2 33.6 289.9 67.2 270.1 87.8C250.3 108.4 212.1 115.9 196.6 142.8C181 169.7 188.1 215.9 171.9 236.6C155.7 257.4 116.3 252.7 83.7 257.7C51.2 262.8 25.6 277.7 0 292.5L0 0Z" fill="#f4e0ff"></path><path d="M195 0C194.1 22.4 193.2 44.8 180.1 58.5C166.9 72.2 141.4 77.3 131.1 95.2C120.7 113.1 125.4 143.9 114.6 157.8C103.8 171.6 77.5 168.4 55.8 171.8C34.1 175.2 17.1 185.1 0 195L0 0Z" fill="#ffa998"></path><path d="M97.5 0C97.1 11.2 96.6 22.4 90 29.3C83.4 36.1 70.7 38.6 65.5 47.6C60.3 56.6 62.7 72 57.3 78.9C51.9 85.8 38.8 84.2 27.9 85.9C17.1 87.6 8.5 92.6 0 97.5L0 0Z" fill="#fbae3c"></path></g></svg>