<svg width="179" height="321" viewBox="0 0 179 321" fill="none" xmlns="http://www.w3.org/2000/svg">
<g clip-path="url(#clip0_12_2)">
<path d="M85.4841 89C88.3302 90.4849 90.236 92.4536 92.4844 94.7432C93.1751 95.4402 93.1751 95.4402 93.8797 96.1514C95.3437 97.6321 96.7969 99.1229 98.25 100.614C99.2428 101.622 100.236 102.629 101.23 103.636C103.662 106.1 106.083 108.573 108.5 111.052C107.778 111.939 107.056 112.826 106.312 113.739C105.775 114.4 105.238 115.061 104.685 115.742C102.5 118.052 102.5 118.052 99.3363 120.403C93.5263 124.877 89.4453 129.123 88.3141 136.583C87.7349 143.4 87.8794 150.208 88.0117 157.04C88.0135 159.555 88.0096 162.07 88.0002 164.585C87.9918 170.496 88.0407 176.405 88.1184 182.316C88.212 189.717 88.2149 197.117 88.2207 204.519C88.2418 217.697 88.3422 230.874 88.5 244.052C90.81 244.052 93.12 244.052 95.5 244.052C95.5 241.412 95.5 238.772 95.5 236.052C97.81 236.052 100.12 236.052 102.5 236.052C102.5 243.972 102.5 251.892 102.5 260.052C100.19 260.052 97.88 260.052 95.5 260.052C95.5 257.412 95.5 254.772 95.5 252.052C93.19 252.052 90.88 252.052 88.5 252.052C88.5 256.012 88.5 259.972 88.5 264.052C86.19 264.052 83.88 264.052 81.5 264.052C81.5114 263.383 81.5229 262.714 81.5347 262.025C81.8081 245.67 81.9798 229.318 82.0415 212.961C82.0737 205.051 82.139 197.143 82.2852 189.233C82.4126 182.331 82.475 175.431 82.4626 168.527C82.4583 164.877 82.4842 161.234 82.5883 157.586C83.4303 140.353 83.4303 140.353 76.3244 125.279C72.5355 121.324 68.4535 117.865 64.0075 114.669C63.51 114.135 63.0125 113.601 62.5 113.052C62.9291 107.021 69.3098 102.731 73.3125 98.7393C74.2284 97.795 75.1443 96.8508 76.0879 95.8779C76.9728 94.9904 77.8578 94.1029 78.7695 93.1885C79.5801 92.3708 80.3907 91.5531 81.2258 90.7107C83.5 89.0518 83.5 89.0518 85.4841 89Z" fill="#FAFF00"/>
<path d="M86.069 28.8136C91.4916 33.3679 96.6552 38.1178 101.712 43.0754C102.458 43.7847 103.205 44.4941 103.974 45.2249C104.674 45.9134 105.374 46.6019 106.095 47.3113C106.732 47.9284 107.369 48.5455 108.025 49.1813C109.28 51.0266 109.28 51.0266 109.25 52.9775C107.912 55.8312 106.087 57.6442 103.864 59.8772C102.97 60.7752 102.076 61.6733 101.156 62.5986C100.215 63.5279 99.2746 64.4572 98.3055 65.4147C97.3727 66.3596 96.44 67.3045 95.479 68.2781C94.5826 69.1709 93.6863 70.0638 92.7628 70.9837C91.5278 72.2142 91.5278 72.2142 90.2679 73.4695C88.0874 75.2591 88.0874 75.2591 85.0598 75.2591C82.663 73.0504 82.663 73.0504 80.0138 70.2107C77.3909 67.5507 74.7374 64.935 72.0112 62.3817C71.0204 61.4365 70.0296 60.4912 69.0388 59.5459C68.5237 59.0728 68.0085 58.5996 67.4777 58.1122C66.0191 56.7022 66.0191 56.7022 63.8667 54.0557C64.0317 49.8952 66.7758 47.7694 69.6104 44.9843C70.3139 44.2869 70.3139 44.2869 71.0316 43.5755C72.5259 42.0973 74.0305 40.6301 75.5355 39.1628C76.5526 38.1604 77.5691 37.1573 78.5848 36.1535C81.0717 33.6988 83.5678 31.2537 86.069 28.8136Z" fill="#FAFF00"/>
<path d="M116.345 60.1138C120.046 61.6679 122.386 63.905 125.191 66.7477C126.538 68.1046 126.538 68.1046 127.911 69.4889C128.84 70.4351 129.769 71.3813 130.726 72.3562C131.679 73.3204 132.633 74.284 133.588 75.2472C135.918 77.6027 138.244 79.9626 140.566 82.3269C139.015 86.0009 136.807 88.367 134.006 91.1774C133.111 92.0755 132.216 92.9735 131.294 93.8988C130.357 94.8281 129.42 95.7574 128.455 96.7149C127.05 98.1323 127.05 98.1323 125.617 99.5783C124.722 100.471 123.827 101.364 122.905 102.284C122.082 103.104 121.26 103.925 120.413 104.77C118.363 106.559 118.363 106.559 116.345 106.559C115.064 105.254 115.064 105.254 113.507 103.341C109.987 99.1933 106.246 95.3233 102.405 91.4771C101.825 90.8919 101.244 90.3066 100.646 89.7035C97.6775 86.6519 97.6775 86.6519 94.1426 84.3462C95.6959 80.6432 97.932 78.3025 100.773 75.4957C102.13 74.1486 102.13 74.1486 103.513 72.7743C104.459 71.845 105.405 70.9157 106.379 69.9582C107.343 69.0042 108.306 68.0498 109.269 67.0948C111.623 64.7632 113.982 62.4364 116.345 60.1138Z" fill="#FAFF00"/>
<path d="M53 59C56.6675 60.5392 58.9858 62.7549 61.7656 65.5703C63.0998 66.9142 63.0998 66.9142 64.4609 68.2852C65.3813 69.2223 66.3017 70.1595 67.25 71.125C68.1948 72.0799 69.1402 73.0343 70.0859 73.9883C72.3952 76.3211 74.6996 78.6584 77 81C75 84.5 75 84.5 72.5 87.5C72 88 71.5 88.5 71 89C68.5 91.5 67.5175 92.628 65.5234 94.4531C64.518 95.3813 64.518 95.3813 63.4922 96.3281C62.7935 96.9623 62.0948 97.5966 61.375 98.25C60.3154 99.2245 60.3154 99.2245 59.2344 100.219C57.4943 101.818 55.7494 103.411 54 105C48.5627 100.47 43.5354 95.6571 38.5625 90.625C37.4652 89.5209 37.4652 89.5209 36.3457 88.3945C34.5615 86.5986 32.7796 84.8004 31 83C32.5392 79.3325 34.7549 77.0142 37.5703 74.2344C38.9142 72.9002 38.9142 72.9002 40.2852 71.5391C41.2223 70.6187 42.1595 69.6983 43.125 68.75C44.0799 67.8052 45.0343 66.8598 45.9883 65.9141C48.3211 63.6048 50.6584 61.3004 53 59Z" fill="#FF0099"/>
<path d="M53 59C56.3264 60.5257 57.9556 61.9334 60 65C59.34 65 58.68 65 58 65C57.67 66.32 57.34 67.64 57 69C55.68 69 54.36 69 53 69C52.7551 69.5723 52.5102 70.1447 52.2578 70.7344C50.7889 73.3802 49.0465 75.1485 46.875 77.25C46.1505 77.9564 45.4261 78.6628 44.6797 79.3906C44.1254 79.9217 43.5711 80.4528 43 81C44.4623 84.3221 46.3081 86.6931 48.8125 89.3125C49.4789 90.0305 50.1454 90.7485 50.832 91.4883C52.9409 93.3073 52.9409 93.3073 55.7617 92.7305C56.5004 92.4894 57.239 92.2484 58 92C58 92.66 58 93.32 58 94C59.32 94 60.64 94 62 94C61.4304 97.6261 60.0763 99.2552 57.4375 101.75C56.4765 102.67 56.4765 102.67 55.4961 103.609C55.0024 104.068 54.5087 104.527 54 105C48.5627 100.47 43.5354 95.6571 38.5625 90.625C37.4652 89.5209 37.4652 89.5209 36.3457 88.3945C34.5615 86.5986 32.7796 84.8004 31 83C32.5392 79.3325 34.7549 77.0142 37.5703 74.2344C38.9142 72.9002 38.9142 72.9002 40.2852 71.5391C41.2223 70.6187 42.1595 69.6983 43.125 68.75C44.0799 67.8052 45.0343 66.8598 45.9883 65.9141C48.3211 63.6048 50.6584 61.3004 53 59Z" fill="#FAFF00"/>
<path d="M84 89C87.6675 90.5392 89.9858 92.7549 92.7656 95.5703C94.0998 96.9142 94.0998 96.9142 95.4609 98.2852C96.3813 99.2223 97.3017 100.159 98.25 101.125C99.1948 102.08 100.14 103.034 101.086 103.988C103.395 106.321 105.7 108.658 108 111C106 114.5 106 114.5 103.5 117.5C103 118 102.5 118.5 102 119C99.5 121.5 98.5175 122.628 96.5234 124.453C95.518 125.381 95.518 125.381 94.4922 126.328C93.7935 126.962 93.0948 127.597 92.375 128.25C91.3154 129.225 92.581 110.006 91.5 111C89.7599 112.599 85.7494 109.411 84 111C78.5627 106.47 74.5354 125.657 69.5625 120.625C68.4652 119.521 68.4652 119.521 67.3457 118.395C65.5615 116.599 63.7796 114.8 62 113C63.5392 109.332 65.7549 107.014 68.5703 104.234C69.9142 102.9 69.9142 102.9 71.2852 101.539C72.2223 100.619 73.1595 99.6983 74.125 98.75C75.0799 97.8052 76.0343 96.8598 76.9883 95.9141C79.3211 93.6048 81.6584 91.3004 84 89Z" fill="#FF0099"/>
<path d="M86.0689 28.8136C86.5196 29.2004 86.9703 29.5872 87.4346 29.9857C88.0442 30.5087 88.6538 31.0317 89.2818 31.5705C89.9269 32.1254 90.572 32.6804 91.2366 33.2521C92.7706 34.562 94.3231 35.8503 95.881 37.1316C98.3217 39.2963 100.379 41.2552 102.216 43.9588C102.381 47.3603 101.601 49.9679 100.198 53.046C99.8646 52.0464 99.5316 51.0468 99.1885 50.017C98.59 49.8725 97.9916 49.728 97.3751 49.5792C94.3251 48.7947 93.0154 47.167 90.8626 44.9054C90.1497 44.1648 89.4368 43.4243 88.7023 42.6612C88.1663 42.0899 87.6303 41.5185 87.0781 40.9298C86.6033 41.3437 86.1284 41.7576 85.6392 42.184C85.0109 42.7281 84.3825 43.2721 83.7352 43.8326C83.1146 44.3715 82.4941 44.9103 81.8547 45.4655C80.0137 46.9879 80.0137 46.9879 76.9862 49.0073C76.9862 48.3409 76.9862 47.6745 76.9862 46.9879C76.3201 47.3211 75.654 47.6543 74.9678 47.9976C74.3062 50.5494 74.3062 50.5494 73.9586 53.046C73.6255 53.046 73.2925 53.046 72.9494 53.046C72.6163 51.0468 72.2833 49.0477 71.9402 46.9879C70.9411 47.6543 69.942 48.3207 68.9126 49.0073C69.4917 45.308 70.9034 43.628 73.5525 41.0402C74.2778 40.3244 75.0031 39.6085 75.7503 38.871C76.512 38.1343 77.2737 37.3976 78.0584 36.6386C78.824 35.8863 79.5896 35.134 80.3784 34.3589C82.2686 32.5035 84.1655 30.6555 86.0689 28.8136Z" fill="#FF0099"/>
<path d="M95.1517 83.3365C111.11 87.6435 111.11 87.6435 117.354 96.5887C116.438 99.2126 115.522 101.837 114.579 104.54C111.333 101.511 108.097 98.4723 104.865 95.4291C103.062 93.7379 101.259 92.0467 99.4014 90.3043C95.1517 85.987 95.1517 85.987 95.1517 83.3365Z" fill="#FF0099"/>
<path d="M96.161 239.838C96.494 239.838 96.827 239.838 97.1702 239.838C97.1702 242.503 97.1702 245.169 97.1702 247.915C95.172 247.915 93.1737 247.915 91.115 247.915C91.448 246.916 91.7811 245.916 92.1242 244.886C93.1233 244.886 94.1224 244.886 95.1518 244.886C95.4848 243.22 95.8178 241.554 96.161 239.838Z" fill="#474142"/>
<path d="M142.447 22.5341C143.363 23.187 144.278 23.84 145.221 24.5128C162.498 37.6757 172.415 56.3191 176.931 77.2418C177.109 78.0086 177.288 78.7754 177.472 79.5654C178.016 82.7203 178.085 85.7001 178.101 88.9023C178.11 90.2368 178.118 91.5713 178.127 92.9463C178.132 94.4188 178.136 95.8914 178.141 97.3639C178.149 98.9204 178.157 100.477 178.166 102.033C178.192 107.143 178.208 112.253 178.222 117.362C178.228 119.128 178.233 120.895 178.239 122.661C178.261 130.019 178.28 137.376 178.291 144.734C178.307 155.234 178.341 165.734 178.399 176.235C178.438 183.639 178.458 191.044 178.463 198.449C178.467 202.859 178.479 207.269 178.512 211.679C178.764 246.754 178.764 246.754 172.874 262.64C172.469 263.807 172.064 264.973 171.646 266.175C164.142 286.98 146.753 302.826 127.234 312.282C107.085 320.942 83.1932 322.847 62.3244 315.322C52.3134 311.306 43.343 305.872 34.9406 299.112C33.9483 298.331 32.956 297.55 31.9336 296.745C16.4961 283.786 7.29831 262.98 4.51413 243.391C4.21805 238.169 4.21538 232.955 4.21947 227.727C4.21339 226.167 4.20648 224.606 4.19882 223.046C4.18101 218.832 4.17615 214.618 4.17485 210.404C4.1734 207.762 4.16907 205.12 4.16371 202.478C4.14497 193.236 4.13665 183.993 4.13825 174.75C4.13947 166.178 4.11811 157.606 4.08604 149.034C4.05938 141.64 4.04864 134.246 4.04993 126.853C4.05045 122.452 4.04487 118.051 4.02319 113.651C4.00332 109.503 4.00356 105.357 4.01816 101.21C4.02025 99.7023 4.01566 98.1951 4.00323 96.6879C3.80942 71.526 12.3425 49.0567 30.0597 30.8922C60.2783 1.13162 108.129 -2.30428 142.447 22.5341ZM38.9974 33.6782C38.1424 34.4383 37.2874 35.1984 36.4064 35.9815C22.6683 48.8703 13.7717 67.1489 12.3501 85.9886C12.2423 90.0334 12.2272 94.072 12.2502 98.1175C12.2478 99.6568 12.244 101.196 12.239 102.735C12.2296 106.876 12.239 111.016 12.2525 115.156C12.2641 119.512 12.2598 123.868 12.2579 128.225C12.257 135.535 12.2681 142.846 12.2869 150.157C12.3084 158.581 12.3119 167.006 12.3056 175.43C12.2998 183.572 12.3056 191.714 12.3169 199.855C12.3216 203.303 12.3225 206.752 12.3204 210.2C12.3185 214.267 12.3268 218.334 12.3428 222.401C12.347 223.885 12.3479 225.368 12.3451 226.851C12.306 250.877 18.7745 272.069 35.828 289.424C41.0911 294.559 46.7459 298.595 53.1965 302.151C53.994 302.616 54.7915 303.081 55.6131 303.56C72.3565 312.723 93.8449 314.376 112.179 309.219C126.012 304.474 137.052 298.222 147.518 287.968C148.697 286.845 148.697 286.845 149.899 285.7C166.024 269.261 169.97 247.323 170.011 225.181C170.017 223.649 170.024 222.117 170.031 220.585C170.052 215.576 170.063 210.567 170.073 205.558C170.077 203.825 170.081 202.091 170.085 200.358C170.105 192.209 170.119 184.061 170.128 175.912C170.137 166.547 170.164 157.183 170.205 147.818C170.236 140.553 170.251 133.288 170.254 126.022C170.257 121.695 170.265 117.369 170.291 113.043C170.315 108.964 170.319 104.887 170.309 100.809C170.308 99.3255 170.314 97.8423 170.328 96.3593C170.449 82.8973 168.396 69.5323 161.908 57.5495C161.38 56.5414 161.38 56.5414 160.841 55.5129C157.946 50.1222 154.695 45.3006 150.561 40.77C149.824 39.9407 149.086 39.1114 148.327 38.257C134.897 23.9549 116.377 15.0406 96.7958 14.1759C74.699 13.5248 55.6999 18.5358 38.9974 33.6782Z" fill="#FF0099"/>
</g>
<defs>
<clipPath id="clip0_12_2">
<rect width="179" height="321" fill="white"/>
</clipPath>
</defs>
</svg>
